<svg width="18" height="17" fill="none" xmlns="http://www.w3.org/2000/svg"><path d="M1.618 1.156l1.04 1.964 3.294 7.34-.751 1.04c-.347.462-.347.982-.116 1.502.231.462.751.809 1.271.809h8.38c.346 0 .577-.231.577-.578s-.23-.578-.578-.578H6.356c-.173 0-.23-.115-.23-.173 0-.058-.058-.174 0-.29l.808-1.04h6.646c.23 0 .404-.115.52-.346l2.831-6.299c.231-.462.174-1.04-.115-1.502-.231-.405-.752-.694-1.272-.694H3.524L2.485.29a.607.607 0 00-.52-.29H.579C.23 0 0 .231 0 .578s.231.578.578.578h1.04zm13.926 2.311c.174 0 .29.116.347.174 0 .057.116.23 0 .404l-2.716 5.952H6.992l-2.89-6.53h11.442zM7.801 16.758a1.156 1.156 0 100-2.312 1.156 1.156 0 000 2.312zm5.085 0a1.156 1.156 0 100-2.312 1.156 1.156 0 000 2.312z" fill="#000"/></svg>