<svg width="18" height="17" fill="none" xmlns="http://www.w3.org/2000/svg"><path d="M11.745 10.006a.152.152 0 01.153-.152.153.153 0 01.152.152 5.001 5.001 0 01-1.473 3.55 5.033 5.033 0 01-3.561 1.469.153.153 0 01-.153-.152.152.152 0 01.153-.152 4.74 4.74 0 003.345-1.38 4.709 4.709 0 001.384-3.335zm-6.56-.304a.612.612 0 00-.598.727.608.608 0 00.832.444.61.61 0 00.198-.993.611.611 0 00-.432-.178zm2.441.609a.607.607 0 00-.73-.597.61.61 0 00-.444.83.61.61 0 001.174-.233zm1.22.608a.612.612 0 00.599-.727.608.608 0 00-.832-.443.61.61 0 00-.198.992c.114.114.27.178.432.178zM18 .274v9.124a.303.303 0 01-.305.304h-4.592c0 .1.015.201.015.304a6.07 6.07 0 01-.826 3.054 6.092 6.092 0 01-2.253 2.227 6.117 6.117 0 01-6.126-.046L.44 16.968a.306.306 0 01-.437-.223.303.303 0 01.028-.184L1.765 13.1a6.07 6.07 0 011.072-7.525 6.107 6.107 0 012.348-1.372V.24a.252.252 0 01.04-.118v-.03a.305.305 0 01.049-.043l.045-.03L5.374 0h12.403l.052.018.046.03a.306.306 0 01.049.043h.015v.03a.251.251 0 01.04.12.28.28 0 01.021.033zM6.406.578l5.187 3.878L16.779.578H6.406zm6.102 9.428a5.462 5.462 0 00-2.19-4.376 5.501 5.501 0 00-4.825-.885 5.497 5.497 0 00-3.61 3.312 5.459 5.459 0 00.486 4.866v.034a.278.278 0 01.021.057.361.361 0 01-.015.177v.033L.984 16.02l2.804-1.396h.033l.061-.015h.116l.055.021h.034a5.504 5.504 0 007.655-1.842c.5-.842.764-1.802.766-2.78zm4.882-.912V.882l-5.614 4.197a.306.306 0 01-.367 0L5.795.882v3.163a6.122 6.122 0 014.71.976 6.092 6.092 0 012.537 4.073h4.348z" fill="#000"/></svg>