<svg width="86" height="96" fill="none" xmlns="http://www.w3.org/2000/svg"><path d="M32.1 65.5c.3.3.7.5 1.2.5.4 0 .8-.2 1.2-.5l8.6-8.6 8.6 8.6c.3.3.7.5 1.2.5.4 0 .8-.2 1.2-.5.6-.6.6-1.7 0-2.3l-8.6-8.6 8.6-8.6c.6-.6.6-1.7 0-2.3-.6-.6-1.7-.6-2.3 0L43 52.3l-8.6-8.6c-.6-.6-1.7-.6-2.3 0-.6.6-.6 1.7 0 2.3l8.6 8.6-8.6 8.6c-.6.6-.6 1.7 0 2.3z" fill="#000"/><path d="M83.6 13.8H59.8l-4.4-8.9c-1.3-2.7-4-4.4-7.1-4.4H37.7c-3 0-5.7 1.7-7.1 4.4l-4.4 8.9H2.4c-.9 0-1.6.7-1.6 1.6 0 .9.7 1.6 1.6 1.6h6.4l8.6 68.4c.7 5.7 5.6 10 11.4 10h28.5c5.8 0 10.6-4.3 11.4-10L77.1 17h6.4c.9 0 1.6-.7 1.6-1.6 0-.9-.6-1.6-1.5-1.6zm-50-7.5c.8-1.6 2.4-2.6 4.1-2.6h10.6c1.7 0 3.4 1 4.1 2.6l3.7 7.4H29.9l3.7-7.4zm31.7 78.8c-.5 4.1-4 7.2-8.1 7.2H28.8c-4.1 0-7.6-3.1-8.1-7.2l-8.5-68h61.7l-8.6 68z" fill="#000"/></svg>