<svg width="79" height="79" fill="none" xmlns="http://www.w3.org/2000/svg"><path d="M39.5 45.295a5.798 5.798 0 005.795-5.795 5.798 5.798 0 00-5.795-5.795 5.797 5.797 0 00-5.795 5.795 5.797 5.797 0 005.795 5.795zm12.512-16.972a3.155 3.155 0 10.004-6.31 3.155 3.155 0 00-.004 6.31zM51.09 39.5c0 6.4-5.19 11.59-11.59 11.59-6.4 0-11.59-5.19-11.59-11.59 0-1.346.242-2.637.665-3.841h-5.602v15.71c0 2.711 2.22 4.932 4.934 4.932h22.365c2.712 0 4.933-2.22 4.933-4.933V30.721h-8.15A11.559 11.559 0 0151.09 39.5zM39.5 0C17.684 0 0 17.684 0 39.5S17.684 79 39.5 79 79 61.316 79 39.5 61.316 0 39.5 0zm21.09 55.517c0 3.62-2.961 6.584-6.584 6.584H24.17c-3.62 0-6.583-2.965-6.583-6.584v-29.84c0-3.623 2.962-6.584 6.583-6.584h29.84c3.62 0 6.584 2.961 6.584 6.584v29.84h-.003z" fill="#fff"/></svg>