<svg width="12" height="12" viewBox="0 0 12 12" fill="none" xmlns="http://www.w3.org/2000/svg">
<path d="M7.78447 6.48277L6.13191 8.15035V3.40029C6.13191 3.32449 6.08067 3.27396 6.00381 3.27396C5.92695 3.27396 5.8757 3.32449 5.8757 3.40029V8.11245L4.22315 6.52067C4.17191 6.47014 4.09504 6.47014 4.0438 6.52067C3.99256 6.57121 3.99256 6.647 4.0438 6.69754L6.02943 8.60514L7.96382 6.647C8.01506 6.59647 8.01506 6.52067 7.96382 6.47014C7.91257 6.43224 7.83571 6.43224 7.78447 6.48277Z" fill="#A7A7A7" stroke="#A7A7A7" stroke-width="0.3"/>
<path d="M8.61725 1H3.39056C2.07108 1 1.00781 2.04855 1.00781 3.34976V8.50409C1.00781 9.8053 2.07108 10.8538 3.39056 10.8538H8.61725C9.93673 10.8538 11 9.8053 11 8.50409V3.34976C11 2.04855 9.93673 1 8.61725 1ZM10.7438 8.50409C10.7438 9.66633 9.79581 10.6012 8.61725 10.6012H3.39056C2.212 10.6012 1.26402 9.66633 1.26402 8.50409V3.34976C1.26402 2.18752 2.212 1.25266 3.39056 1.25266H8.61725C9.79581 1.25266 10.7438 2.18752 10.7438 3.34976V8.50409Z" fill="#A7A7A7" stroke="#A7A7A7" stroke-width="0.3"/>
</svg>
