<svg width="12" height="12" fill="none" xmlns="http://www.w3.org/2000/svg"><path d="M7.784 6.483L6.132 8.15V3.4c0-.076-.051-.126-.128-.126-.077 0-.128.05-.128.126v4.712L4.223 6.521a.125.125 0 00-.18 0 .121.121 0 000 .177L6.03 8.605l1.935-1.958a.121.121 0 000-.177.139.139 0 00-.18.013z" fill="#A7A7A7" stroke="#A7A7A7" stroke-width=".3"/><path d="M8.617 1H3.391C2.07 1 1.008 2.049 1.008 3.35v5.154c0 1.301 1.063 2.35 2.383 2.35h5.226c1.32 0 2.383-1.049 2.383-2.35V3.35C11 2.049 9.937 1 8.617 1zm2.127 7.504c0 1.162-.948 2.097-2.127 2.097H3.391c-1.179 0-2.127-.935-2.127-2.097V3.35c0-1.162.948-2.097 2.127-2.097h5.226c1.179 0 2.127.935 2.127 2.097v5.154z" fill="#A7A7A7" stroke="#A7A7A7" stroke-width=".3"/></svg>