<svg width="624" height="828" fill="none" xmlns="http://www.w3.org/2000/svg"><path fill-rule="evenodd" clip-rule="evenodd" d="M403 385c98.744 0 179-80.473 179-180S501.744 25 403 25s-179 80.473-179 180 80.256 180 179 180zm0 25c112.666 0 204-91.782 204-205S515.666 0 403 0 199 91.782 199 205s91.334 205 204 205z" fill="#352D36"/><path fill-rule="evenodd" clip-rule="evenodd" d="M403 803c108.195 0 196-87.923 196-196.5S511.195 410 403 410s-196 87.923-196 196.5S294.805 803 403 803zm0 25c122.055 0 221-99.169 221-221.5S525.055 385 403 385s-221 99.169-221 221.5S280.945 828 403 828z" fill="#352D36"/><path d="M0 619h29v187H0V619zm50 0h29v187H50V619z" fill="#352D36"/><path d="M128 619v27H50v-27h78zm-11 83v27H50v-27h67z" fill="#352D36"/></svg>