<svg width="624" height="828" viewBox="0 0 624 828" fill="none" xmlns="http://www.w3.org/2000/svg">
<path fill-rule="evenodd" clip-rule="evenodd" d="M403 385C501.744 385 582 304.527 582 205C582 105.473 501.744 25 403 25C304.256 25 224 105.473 224 205C224 304.527 304.256 385 403 385ZM403 410C515.666 410 607 318.218 607 205C607 91.7816 515.666 0 403 0C290.334 0 199 91.7816 199 205C199 318.218 290.334 410 403 410Z" fill="#352D36"/>
<path fill-rule="evenodd" clip-rule="evenodd" d="M403 803C511.195 803 599 715.077 599 606.5C599 497.923 511.195 410 403 410C294.805 410 207 497.923 207 606.5C207 715.077 294.805 803 403 803ZM403 828C525.055 828 624 728.831 624 606.5C624 484.169 525.055 385 403 385C280.945 385 182 484.169 182 606.5C182 728.831 280.945 828 403 828Z" fill="#352D36"/>
<path d="M0 619H29V806H0V619Z" fill="#352D36"/>
<path d="M50 619H79V806H50V619Z" fill="#352D36"/>
<path d="M128 619V646H50V619H128Z" fill="#352D36"/>
<path d="M117 702V729H50V702H117Z" fill="#352D36"/>
</svg>
