<svg width="79" height="79" viewBox="0 0 79 79" fill="none" xmlns="http://www.w3.org/2000/svg">
<path fill-rule="evenodd" clip-rule="evenodd" d="M39.5 79C61.3152 79 79 61.3154 79 39.5C79 17.6846 61.3152 0 39.5 0C17.6848 0 0 17.6846 0 39.5C0 61.3154 17.6848 79 39.5 79ZM61.4714 22.6445C59.8979 20.999 57.7627 20 55.3464 20H23.6536C21.2935 20 19.1021 20.999 17.5286 22.6445C15.9553 24.29 15 26.5825 15 29.0508V50.1494C15 52.6177 15.9553 54.9097 17.5286 56.5552C19.1021 58.2007 21.2935 59.2002 23.6536 59.2002H55.3464C57.7627 59.2002 59.8979 58.2007 61.4714 56.5552C63.0447 54.9097 64 52.6177 64 50.1494V29.0508C64 26.5825 63.0447 24.29 61.4714 22.6445ZM39.5 41.5688L20.7878 29.8145V29.0508C20.7878 28.228 21.0688 27.4639 21.6306 26.9351C22.1365 26.3472 22.8669 26.0532 23.6536 26.0532H55.3464C56.1331 26.0532 56.8635 26.3472 57.3694 26.9351H57.4255C57.9312 27.4639 58.2683 28.228 58.2683 29.0508V29.8145L39.5 41.5688ZM50.0642 41.98L58.2683 36.8672V49.5615L50.0642 41.98ZM44.8945 45.2124L53.4358 53.1465H25.7891L34.1055 45.2124L38.0391 47.6812C38.9944 48.2686 40.1182 48.21 41.0171 47.6221L44.8945 45.2124ZM28.9358 41.98L20.7878 49.7969V36.8672L28.9358 41.98Z" fill="white"/>
</svg>
