<svg width="79" height="79" fill="none" xmlns="http://www.w3.org/2000/svg"><path fill-rule="evenodd" clip-rule="evenodd" d="M39.5 79C61.315 79 79 61.315 79 39.5S61.315 0 39.5 0 0 17.685 0 39.5 17.685 79 39.5 79zm21.971-56.355C59.898 20.998 57.763 20 55.346 20H23.654c-2.36 0-4.552.999-6.125 2.645C15.955 24.29 15 26.582 15 29.05v21.098c0 2.469.955 4.76 2.529 6.406 1.573 1.646 3.765 2.645 6.125 2.645h31.692c2.417 0 4.552-1 6.125-2.645C63.045 54.91 64 52.618 64 50.15V29.051c0-2.468-.955-4.761-2.529-6.406zM39.5 41.569L20.788 29.814v-.763c0-.823.28-1.587.843-2.116.506-.588 1.236-.882 2.023-.882h31.692c.787 0 1.518.294 2.023.882h.056c.506.529.843 1.293.843 2.116v.764L39.5 41.569zm10.564.411l8.204-5.113v12.695l-8.204-7.582zm-5.17 3.232l8.542 7.934H25.789l8.316-7.934 3.934 2.47c.955.587 2.08.528 2.978-.06l3.877-2.41zM28.937 41.98l-8.148 7.817v-12.93l8.148 5.113z" fill="#fff"/></svg>