<svg width="23" height="23" fill="none" xmlns="http://www.w3.org/2000/svg"><path d="M8.677 13.103L7.44 14.337l-.872-.87c-.34-.34-.873-.34-1.188 0l-4.508 4.5A2.907 2.907 0 000 20.047c0 .775.315 1.525.872 2.082A2.917 2.917 0 002.957 23c.8 0 1.527-.315 2.084-.871l2.036-2.033c.34-.338.34-.87 0-1.185-.34-.34-.873-.34-1.188 0l-2.035 2.032a1.23 1.23 0 01-.873.363c-.315 0-.703-.12-.945-.363a1.227 1.227 0 01-.364-.87c0-.316.121-.654.364-.896l3.926-3.896 2.375 2.371c.34.34.873.34 1.188 0 .34-.338.34-.87 0-1.185l-.873-.871 1.236-1.235c3.151 2.565 7.829 2.372 10.761-.556C22.152 12.232 23 10.199 23 8.045c0-2.153-.848-4.161-2.35-5.686a8.054 8.054 0 00-11.392 0 7.952 7.952 0 00-2.35 5.687 7.803 7.803 0 001.769 5.057zm10.76-9.534a6.269 6.269 0 011.866 4.501 6.31 6.31 0 01-1.866 4.5c-2.472 2.469-6.52 2.469-8.991 0a6.269 6.269 0 01-1.866-4.5 6.31 6.31 0 011.866-4.5c2.472-2.469 6.52-2.469 8.991 0z" fill="#000"/></svg>