<svg width="23" height="23" viewBox="0 0 23 23" fill="none" xmlns="http://www.w3.org/2000/svg">
<path d="M8.6765 13.1031L7.44046 14.3372L6.56797 13.4661C6.22866 13.1273 5.69547 13.1273 5.3804 13.4661L0.872498 17.9669C0.315069 18.5234 0 19.2493 0 20.0479C0 20.8222 0.315069 21.5723 0.872498 22.1289C1.42993 22.6854 2.15701 23 2.9568 23C3.75659 23 4.48367 22.6854 5.0411 22.1289L7.07692 20.0963C7.41623 19.7575 7.41623 19.2251 7.07692 18.9106C6.73762 18.5718 6.20443 18.5718 5.88936 18.9106L3.85353 20.9432C3.61117 21.1852 3.2961 21.3062 2.98103 21.3062C2.66597 21.3062 2.27819 21.1852 2.03583 20.9432C1.79347 20.7012 1.67229 20.3866 1.67229 20.0721C1.67229 19.7575 1.79347 19.4187 2.03583 19.1767L5.96206 15.2809L8.3372 17.6523C8.6765 17.9911 9.2097 17.9911 9.52476 17.6523C9.86407 17.3135 9.86407 16.7812 9.52476 16.4666L8.65227 15.5955L9.8883 14.3614C13.039 16.9264 17.7165 16.7328 20.6491 13.8048C22.1517 12.232 23 10.1994 23 8.04576C23 5.89216 22.1517 3.88375 20.6491 2.35928C17.4984 -0.786428 12.4089 -0.786428 9.25817 2.35928C7.7313 3.88375 6.90727 5.89216 6.90727 8.04576C6.88304 9.90899 7.51317 11.6754 8.6765 13.1031ZM19.4373 3.56917C20.6491 4.77906 21.3035 6.35192 21.3035 8.06996C21.3035 9.76381 20.6491 11.3609 19.4373 12.5708C16.9652 15.0389 12.9178 15.0389 10.4457 12.5708C9.23393 11.3609 8.57956 9.78801 8.57956 8.06996C8.57956 6.37612 9.23393 4.77906 10.4457 3.56917C12.9178 1.101 16.9652 1.101 19.4373 3.56917Z" fill="black"/>
</svg>
