<svg width="303" height="65" viewBox="0 0 303 65" fill="none" xmlns="http://www.w3.org/2000/svg">
<path d="M23.104 44.192H20.352V40.096C17.92 42.8267 14.976 44.192 11.52 44.192C8.36267 44.192 5.65333 43.0613 3.392 40.8C1.13067 38.5387 0 35.8293 0 32.672C0 29.5147 1.13067 26.8053 3.392 24.544C5.65333 22.2827 8.36267 21.152 11.52 21.152C15.104 21.152 18.048 22.5173 20.352 25.248C20.4373 25.1627 20.4373 23.7973 20.352 21.152H23.104V44.192ZM20.416 32.672C20.416 30.1973 19.5413 28.1067 17.792 26.4C16.0853 24.6507 13.9947 23.776 11.52 23.776C9.088 23.776 6.99733 24.6507 5.248 26.4C3.49867 28.1493 2.624 30.24 2.624 32.672C2.624 35.104 3.49867 37.1947 5.248 38.944C6.99733 40.6933 9.088 41.568 11.52 41.568C13.952 41.568 16.0427 40.6933 17.792 38.944C19.5413 37.1947 20.416 35.104 20.416 32.672Z" fill="#352D36"/>
<path d="M45.2075 24.352C44.9942 24.6507 44.3968 25.2907 43.4155 26.272C42.8608 25.632 41.9222 25.056 40.5995 24.544C39.2768 24.032 38.1462 23.776 37.2075 23.776C36.2688 23.776 34.9462 24.096 33.2395 24.736C32.0875 25.1627 30.9782 26.144 29.9115 27.68C28.8448 29.216 28.3115 30.5813 28.3115 31.776V44.192H25.6875V21.152H28.4395V25.248C30.8715 22.5173 33.7942 21.152 37.2075 21.152C40.4075 21.152 43.0742 22.2187 45.2075 24.352Z" fill="#352D36"/>
<path d="M64.77 40.864C62.594 43.0827 59.9273 44.192 56.77 44.192C53.8687 44.192 51.2233 43.1253 48.834 40.992C46.4447 38.8587 45.25 36.3627 45.25 33.504V0.671997H47.874V21.088H56.77V23.776H47.874V33.568C47.874 34.8053 48.4073 36.128 49.474 37.536C50.5407 38.944 51.65 39.968 52.802 40.608C53.954 41.248 55.2767 41.568 56.77 41.568C57.7087 41.568 58.8393 41.312 60.162 40.8C61.4847 40.288 62.4233 39.712 62.978 39.072L64.77 40.864Z" fill="#352D36"/>
<path d="M100.417 32.672C100.417 35.8293 99.2858 38.5387 97.0245 40.8C94.7632 43.0613 92.0325 44.192 88.8325 44.192C85.6752 44.192 82.9658 43.0613 80.7045 40.8C78.4432 38.5387 77.3125 35.8293 77.3125 32.672C77.3125 29.5147 78.4432 26.8053 80.7045 24.544C82.9658 22.2827 85.6752 21.152 88.8325 21.152C92.0325 21.152 94.7632 22.2827 97.0245 24.544C99.2858 26.8053 100.417 29.5147 100.417 32.672ZM97.7285 32.672C97.7285 30.1973 96.8538 28.1067 95.1045 26.4C93.3978 24.6507 91.3072 23.776 88.8325 23.776C86.4005 23.776 84.3098 24.6507 82.5605 26.4C80.8112 28.1493 79.9365 30.24 79.9365 32.672C79.9365 35.104 80.8112 37.1947 82.5605 38.944C84.3098 40.6933 86.4005 41.568 88.8325 41.568C91.2645 41.568 93.3552 40.6933 95.1045 38.944C96.8538 37.1947 97.7285 35.104 97.7285 32.672Z" fill="#352D36"/>
<path d="M122.333 24.352C122.119 24.6507 121.522 25.2907 120.54 26.272C119.986 25.632 119.047 25.056 117.725 24.544C116.402 24.032 115.271 23.776 114.333 23.776C112.285 23.776 110.301 24.608 108.381 26.272C106.461 27.8933 105.501 29.728 105.501 31.776V41.504H114.333V44.192H105.501V64.672H102.812V31.584C102.812 31.2 103.026 30.3467 103.452 29.024C104.22 26.72 105.607 24.8427 107.613 23.392C109.661 21.8987 111.901 21.152 114.333 21.152C117.533 21.152 120.199 22.2187 122.333 24.352Z" fill="#352D36"/>
<path d="M154.708 40.864C152.532 43.0827 149.865 44.192 146.708 44.192C143.55 44.192 140.841 43.0613 138.579 40.8C136.318 38.5387 135.188 35.8293 135.188 32.672C135.188 29.5147 136.318 26.8053 138.579 24.544C140.841 22.2827 143.55 21.152 146.708 21.152C149.908 21.152 152.574 22.2187 154.708 24.352C154.494 24.6507 153.897 25.2907 152.915 26.272C152.361 25.632 151.422 25.056 150.1 24.544C148.777 24.032 147.646 23.776 146.708 23.776C144.276 23.776 142.185 24.6507 140.436 26.4C138.686 28.1493 137.811 30.24 137.811 32.672C137.811 35.104 138.686 37.1947 140.436 38.944C142.185 40.6933 144.276 41.568 146.708 41.568C147.646 41.568 148.777 41.312 150.1 40.8C151.422 40.288 152.361 39.712 152.915 39.072L154.708 40.864Z" fill="#352D36"/>
<path d="M175.583 24.352C175.369 24.6507 174.772 25.2907 173.79 26.272C173.236 25.632 172.297 25.056 170.975 24.544C169.652 24.032 168.521 23.776 167.583 23.776C166.644 23.776 165.321 24.096 163.615 24.736C162.463 25.1627 161.353 26.144 160.286 27.68C159.22 29.216 158.686 30.5813 158.686 31.776V44.192H156.062V21.152H158.814V25.248C161.246 22.5173 164.169 21.152 167.583 21.152C170.783 21.152 173.449 22.2187 175.583 24.352Z" fill="#352D36"/>
<path d="M198.729 33.952H178.505C178.462 33.9093 178.441 33.9947 178.441 34.208C178.441 34.2933 178.59 34.7627 178.889 35.616C179.23 36.4693 179.444 36.96 179.529 37.088C181.62 40.0747 184.158 41.568 187.145 41.568C188.084 41.568 189.214 41.312 190.537 40.8C191.86 40.288 192.798 39.712 193.353 39.072L195.145 40.864C192.969 43.0827 190.302 44.192 187.145 44.192C183.988 44.192 181.278 43.0613 179.017 40.8C176.756 38.5387 175.625 35.8293 175.625 32.672C175.625 29.5147 176.756 26.8053 179.017 24.544C181.278 22.2827 183.988 21.152 187.145 21.152C191.241 21.152 194.441 22.8587 196.745 26.272C198.068 28.2773 198.729 30.0267 198.729 31.52V33.952ZM195.913 31.328C195.529 29.152 194.505 27.36 192.841 25.952C191.22 24.5013 189.321 23.776 187.145 23.776C184.969 23.776 183.07 24.5013 181.449 25.952C179.828 27.36 178.825 29.152 178.441 31.328H195.913Z" fill="#352D36"/>
<path d="M223.729 44.192H220.977V40.096C218.545 42.8267 215.601 44.192 212.145 44.192C208.988 44.192 206.278 43.0613 204.017 40.8C201.756 38.5387 200.625 35.8293 200.625 32.672C200.625 29.5147 201.756 26.8053 204.017 24.544C206.278 22.2827 208.988 21.152 212.145 21.152C215.729 21.152 218.673 22.5173 220.977 25.248C221.062 25.1627 221.062 23.7973 220.977 21.152H223.729V44.192ZM221.041 32.672C221.041 30.1973 220.166 28.1067 218.417 26.4C216.71 24.6507 214.62 23.776 212.145 23.776C209.713 23.776 207.622 24.6507 205.873 26.4C204.124 28.1493 203.249 30.24 203.249 32.672C203.249 35.104 204.124 37.1947 205.873 38.944C207.622 40.6933 209.713 41.568 212.145 41.568C214.577 41.568 216.668 40.6933 218.417 38.944C220.166 37.1947 221.041 35.104 221.041 32.672Z" fill="#352D36"/>
<path d="M245.833 40.864C243.657 43.0827 240.99 44.192 237.833 44.192C234.931 44.192 232.286 43.1253 229.896 40.992C227.507 38.8587 226.312 36.3627 226.312 33.504V0.671997H228.936V21.088H237.833V23.776H228.936V33.568C228.936 34.8053 229.47 36.128 230.536 37.536C231.603 38.944 232.713 39.968 233.865 40.608C235.017 41.248 236.339 41.568 237.833 41.568C238.771 41.568 239.902 41.312 241.225 40.8C242.547 40.288 243.486 39.712 244.04 39.072L245.833 40.864Z" fill="#352D36"/>
<path d="M251.771 3.04C251.771 4.576 251.003 5.344 249.467 5.344C248.869 5.344 248.336 5.10933 247.867 4.64C247.397 4.17066 247.163 3.63733 247.163 3.04C247.163 2.528 247.418 2.016 247.93 1.504C248.442 0.949331 248.955 0.671997 249.467 0.671997C250.021 0.671997 250.533 0.927998 251.003 1.44C251.515 1.952 251.771 2.48533 251.771 3.04ZM250.874 44.192H248.251V23.84C247.44 23.7547 246.544 23.7547 245.562 23.84V21.152H250.874V44.192Z" fill="#352D36"/>
<path d="M276.979 44.192H274.355V31.84C274.355 30.6453 273.8 29.3013 272.691 27.808C271.624 26.272 270.536 25.248 269.427 24.736C268.019 24.096 266.675 23.776 265.395 23.776C264.456 23.776 263.134 24.096 261.427 24.736C260.275 25.1627 259.166 26.144 258.099 27.68C257.032 29.216 256.499 30.5813 256.499 31.776V44.192H253.875V21.152H256.627V25.248C259.059 22.5173 261.982 21.152 265.395 21.152C269.491 21.152 272.691 22.8587 274.995 26.272C276.318 28.2773 276.979 30.0267 276.979 31.52V44.192Z" fill="#352D36"/>
<path d="M302.604 53.088C302.604 56.288 301.473 59.0187 299.212 61.28C296.951 63.5413 294.22 64.672 291.02 64.672C286.924 64.672 283.724 62.9013 281.42 59.36C280.14 57.3973 279.5 55.6907 279.5 54.24V53.152H282.124C282.209 55.6267 283.084 57.7173 284.748 59.424C286.455 61.1307 288.545 61.984 291.02 61.984C293.495 61.984 295.585 61.1093 297.292 59.36C299.041 57.6533 299.916 55.5627 299.916 53.088C299.916 50.656 299.041 48.5653 297.292 46.816C295.543 45.0667 293.452 44.192 291.02 44.192C290.081 44.192 288.951 44.448 287.628 44.96C286.305 45.472 285.388 46.0693 284.876 46.752L283.084 44.96C283.596 44.5333 284.385 43.872 285.452 42.976C281.484 40.0747 279.5 36.64 279.5 32.672C279.5 29.5147 280.631 26.8053 282.892 24.544C285.153 22.2827 287.863 21.152 291.02 21.152C294.22 21.152 296.951 22.2827 299.212 24.544C301.473 26.8053 302.604 29.5147 302.604 32.672C302.604 37.1093 300.599 40.5013 296.588 42.848C296.588 42.9333 296.716 43.0827 296.972 43.296C300.727 45.5147 302.604 48.7787 302.604 53.088ZM299.916 32.672C299.916 30.1973 299.041 28.1067 297.292 26.4C295.585 24.6507 293.495 23.776 291.02 23.776C288.588 23.776 286.497 24.6507 284.748 26.4C282.999 28.1493 282.124 30.24 282.124 32.672C282.124 35.104 282.999 37.1947 284.748 38.944C286.497 40.6933 288.588 41.568 291.02 41.568C293.452 41.568 295.543 40.6933 297.292 38.944C299.041 37.1947 299.916 35.104 299.916 32.672Z" fill="#352D36"/>
</svg>
