<svg width="303" height="65" fill="none" xmlns="http://www.w3.org/2000/svg"><path d="M23.104 44.192h-2.752v-4.096c-2.432 2.73-5.376 4.096-8.832 4.096-3.157 0-5.867-1.13-8.128-3.392C1.131 38.539 0 35.83 0 32.672c0-3.157 1.13-5.867 3.392-8.128 2.261-2.261 4.97-3.392 8.128-3.392 3.584 0 6.528 1.365 8.832 4.096.085-.085.085-1.45 0-4.096h2.752v23.04zm-2.688-11.52c0-2.475-.875-4.565-2.624-6.272-1.707-1.75-3.797-2.624-6.272-2.624-2.432 0-4.523.875-6.272 2.624-1.75 1.75-2.624 3.84-2.624 6.272 0 2.432.875 4.523 2.624 6.272 1.75 1.75 3.84 2.624 6.272 2.624 2.432 0 4.523-.875 6.272-2.624 1.75-1.75 2.624-3.84 2.624-6.272zm24.792-8.32c-.214.299-.811.939-1.792 1.92-.555-.64-1.494-1.216-2.816-1.728-1.323-.512-2.454-.768-3.392-.768-.94 0-2.262.32-3.968.96-1.153.427-2.262 1.408-3.329 2.944-1.066 1.536-1.6 2.901-1.6 4.096v12.416h-2.623v-23.04h2.752v4.096c2.431-2.73 5.354-4.096 8.768-4.096 3.2 0 5.866 1.067 8 3.2zM64.77 40.864c-2.176 2.219-4.843 3.328-8 3.328-2.901 0-5.547-1.067-7.936-3.2-2.39-2.133-3.584-4.63-3.584-7.488V.672h2.624v20.416h8.896v2.688h-8.896v9.792c0 1.237.533 2.56 1.6 3.968 1.067 1.408 2.176 2.432 3.328 3.072 1.152.64 2.475.96 3.968.96.939 0 2.07-.256 3.392-.768 1.323-.512 2.261-1.088 2.816-1.728l1.792 1.792zm35.647-8.192c0 3.157-1.131 5.867-3.392 8.128-2.262 2.261-4.993 3.392-8.193 3.392-3.157 0-5.866-1.13-8.127-3.392-2.262-2.261-3.392-4.97-3.392-8.128 0-3.157 1.13-5.867 3.391-8.128 2.262-2.261 4.971-3.392 8.129-3.392 3.2 0 5.93 1.13 8.192 3.392 2.26 2.261 3.392 4.97 3.392 8.128zm-2.689 0c0-2.475-.874-4.565-2.623-6.272-1.707-1.75-3.798-2.624-6.273-2.624-2.431 0-4.522.875-6.271 2.624-1.75 1.75-2.625 3.84-2.625 6.272 0 2.432.875 4.523 2.624 6.272 1.75 1.75 3.84 2.624 6.272 2.624 2.433 0 4.523-.875 6.273-2.624 1.749-1.75 2.623-3.84 2.623-6.272zm24.605-8.32c-.214.299-.811.939-1.793 1.92-.554-.64-1.493-1.216-2.815-1.728-1.323-.512-2.454-.768-3.392-.768-2.048 0-4.032.832-5.952 2.496-1.92 1.621-2.88 3.456-2.88 5.504v9.728h8.832v2.688h-8.832v20.48h-2.689V31.584c0-.384.214-1.237.64-2.56.768-2.304 2.155-4.181 4.161-5.632 2.048-1.493 4.288-2.24 6.72-2.24 3.2 0 5.866 1.067 8 3.2zm32.375 16.512c-2.176 2.219-4.843 3.328-8 3.328-3.158 0-5.867-1.13-8.129-3.392-2.261-2.261-3.391-4.97-3.391-8.128 0-3.157 1.13-5.867 3.391-8.128 2.262-2.261 4.971-3.392 8.129-3.392 3.2 0 5.866 1.067 8 3.2-.214.299-.811.939-1.793 1.92-.554-.64-1.493-1.216-2.815-1.728-1.323-.512-2.454-.768-3.392-.768-2.432 0-4.523.875-6.272 2.624-1.75 1.75-2.625 3.84-2.625 6.272 0 2.432.875 4.523 2.625 6.272 1.749 1.75 3.84 2.624 6.272 2.624.938 0 2.069-.256 3.392-.768 1.322-.512 2.261-1.088 2.815-1.728l1.793 1.792zm20.875-16.512c-.214.299-.811.939-1.793 1.92-.554-.64-1.493-1.216-2.815-1.728-1.323-.512-2.454-.768-3.392-.768-.939 0-2.262.32-3.968.96-1.152.427-2.262 1.408-3.329 2.944-1.066 1.536-1.6 2.901-1.6 4.096v12.416h-2.624v-23.04h2.752v4.096c2.432-2.73 5.355-4.096 8.769-4.096 3.2 0 5.866 1.067 8 3.2zm23.146 9.6h-20.224c-.043-.043-.064.043-.064.256 0 .085.149.555.448 1.408.341.853.555 1.344.64 1.472 2.091 2.987 4.629 4.48 7.616 4.48.939 0 2.069-.256 3.392-.768s2.261-1.088 2.816-1.728l1.792 1.792c-2.176 2.219-4.843 3.328-8 3.328s-5.867-1.13-8.128-3.392c-2.261-2.261-3.392-4.97-3.392-8.128 0-3.157 1.131-5.867 3.392-8.128s4.971-3.392 8.128-3.392c4.096 0 7.296 1.707 9.6 5.12 1.323 2.005 1.984 3.755 1.984 5.248v2.432zm-2.816-2.624c-.384-2.176-1.408-3.968-3.072-5.376-1.621-1.45-3.52-2.176-5.696-2.176-2.176 0-4.075.725-5.696 2.176-1.621 1.408-2.624 3.2-3.008 5.376h17.472zm27.816 12.864h-2.752v-4.096c-2.432 2.73-5.376 4.096-8.832 4.096-3.157 0-5.867-1.13-8.128-3.392-2.261-2.261-3.392-4.97-3.392-8.128 0-3.157 1.131-5.867 3.392-8.128s4.971-3.392 8.128-3.392c3.584 0 6.528 1.365 8.832 4.096.085-.085.085-1.45 0-4.096h2.752v23.04zm-2.688-11.52c0-2.475-.875-4.565-2.624-6.272-1.707-1.75-3.797-2.624-6.272-2.624-2.432 0-4.523.875-6.272 2.624-1.749 1.75-2.624 3.84-2.624 6.272 0 2.432.875 4.523 2.624 6.272 1.749 1.75 3.84 2.624 6.272 2.624 2.432 0 4.523-.875 6.272-2.624 1.749-1.75 2.624-3.84 2.624-6.272zm24.792 8.192c-2.176 2.219-4.843 3.328-8 3.328-2.902 0-5.547-1.067-7.937-3.2-2.389-2.133-3.584-4.63-3.584-7.488V.672h2.624v20.416h8.897v2.688h-8.897v9.792c0 1.237.534 2.56 1.6 3.968 1.067 1.408 2.177 2.432 3.329 3.072 1.152.64 2.474.96 3.968.96.938 0 2.069-.256 3.392-.768 1.322-.512 2.261-1.088 2.815-1.728l1.793 1.792zm5.938-37.824c0 1.536-.768 2.304-2.304 2.304-.598 0-1.131-.235-1.6-.704-.47-.47-.704-1.003-.704-1.6 0-.512.255-1.024.767-1.536.512-.555 1.025-.832 1.537-.832.554 0 1.066.256 1.536.768.512.512.768 1.045.768 1.6zm-.897 41.152h-2.623V23.84a14.128 14.128 0 00-2.689 0v-2.688h5.312v23.04zm26.105 0h-2.624V31.84c0-1.195-.555-2.539-1.664-4.032-1.067-1.536-2.155-2.56-3.264-3.072-1.408-.64-2.752-.96-4.032-.96-.939 0-2.261.32-3.968.96-1.152.427-2.261 1.408-3.328 2.944-1.067 1.536-1.6 2.901-1.6 4.096v12.416h-2.624v-23.04h2.752v4.096c2.432-2.73 5.355-4.096 8.768-4.096 4.096 0 7.296 1.707 9.6 5.12 1.323 2.005 1.984 3.755 1.984 5.248v12.672zm25.625 8.896c0 3.2-1.131 5.93-3.392 8.192-2.261 2.261-4.992 3.392-8.192 3.392-4.096 0-7.296-1.77-9.6-5.312-1.28-1.963-1.92-3.67-1.92-5.12v-1.088h2.624c.085 2.475.96 4.565 2.624 6.272 1.707 1.707 3.797 2.56 6.272 2.56s4.565-.875 6.272-2.624c1.749-1.707 2.624-3.797 2.624-6.272 0-2.432-.875-4.523-2.624-6.272-1.749-1.75-3.84-2.624-6.272-2.624-.939 0-2.069.256-3.392.768s-2.24 1.11-2.752 1.792l-1.792-1.792c.512-.427 1.301-1.088 2.368-1.984-3.968-2.901-5.952-6.336-5.952-10.304 0-3.157 1.131-5.867 3.392-8.128s4.971-3.392 8.128-3.392c3.2 0 5.931 1.13 8.192 3.392 2.261 2.261 3.392 4.97 3.392 8.128 0 4.437-2.005 7.83-6.016 10.176 0 .085.128.235.384.448 3.755 2.219 5.632 5.483 5.632 9.792zm-2.688-20.416c0-2.475-.875-4.565-2.624-6.272-1.707-1.75-3.797-2.624-6.272-2.624-2.432 0-4.523.875-6.272 2.624-1.749 1.75-2.624 3.84-2.624 6.272 0 2.432.875 4.523 2.624 6.272 1.749 1.75 3.84 2.624 6.272 2.624 2.432 0 4.523-.875 6.272-2.624 1.749-1.75 2.624-3.84 2.624-6.272z" fill="#352D36"/></svg>