<svg width="50" height="36" viewBox="0 0 50 36" fill="none" xmlns="http://www.w3.org/2000/svg">
<path d="M12.1755 26.7567C12.1755 25.4778 13.4947 24.4322 15.1249 24.4322H15.7279L15.7373 24.4695H43.7609L49 9.65404H30.0224V10.5876H47.6714L43.0919 23.5453H24.5571V23.508H16.4723L11.5253 3.04448L11.0636 3.15651L11.139 2.69907L1.16019 1L1 1.92422L10.6773 3.56727L15.5018 23.508H15.1249C12.9764 23.508 11.2332 24.9643 11.2332 26.7661C11.2332 28.5585 12.9764 30.0242 15.1249 30.0242H18.4982C17.1413 30.0615 16.0577 31.1631 16.0577 32.5074C16.0577 33.8797 17.1885 35 18.5736 35C19.9588 35 21.0895 33.8797 21.0895 32.5074C21.0895 31.1538 19.9965 30.0615 18.649 30.0242H40.8869C39.5395 30.0615 38.4464 31.1631 38.4464 32.5074C38.4464 33.8797 39.5771 35 40.9623 35C42.3475 35 43.4782 33.8797 43.4782 32.5074C43.4782 31.1538 42.3852 30.0615 41.0377 30.0242H46.2391V29.0906H15.1249C13.4947 29.0813 12.1755 28.045 12.1755 26.7567ZM42.5453 32.5074C42.5453 33.3663 41.8386 34.0664 40.9717 34.0664C40.1048 34.0664 39.3981 33.3663 39.3981 32.5074C39.3981 31.6485 40.1048 30.9484 40.9717 30.9484C41.8386 30.9484 42.5453 31.6392 42.5453 32.5074ZM20.1472 32.5074C20.1472 33.3663 19.4405 34.0664 18.5736 34.0664C17.7067 34.0664 17 33.3663 17 32.5074C17 31.6485 17.7067 30.9484 18.5736 30.9484C19.4405 30.9484 20.1472 31.6392 20.1472 32.5074Z" fill="#CBCBCB" stroke="#A5A5A5"/>
</svg>
