<svg width="18" height="17" viewBox="0 0 18 17" fill="none" xmlns="http://www.w3.org/2000/svg">
<path d="M1.61801 1.15572L2.65816 3.12044L5.95196 10.4593L5.20074 11.4994C4.85402 11.9617 4.85402 12.4818 5.08517 13.0018C5.31631 13.4641 5.83638 13.8108 6.35646 13.8108H14.7354C15.0821 13.8108 15.3133 13.5797 15.3133 13.233C15.3133 12.8863 15.0821 12.6551 14.7354 12.6551H6.35646C6.1831 12.6551 6.12531 12.5395 6.12531 12.4818C6.12531 12.424 6.06753 12.3084 6.12531 12.1928L6.93432 11.1527H13.5797C13.8109 11.1527 13.9842 11.0371 14.0998 10.806L16.9313 4.5073C17.1624 4.04502 17.1047 3.46716 16.8157 3.00487C16.5846 2.60037 16.0645 2.31144 15.5444 2.31144H3.52495L2.4848 0.28893C2.36923 0.115572 2.19587 0 1.96472 0H0.57786C0.231144 0 0 0.231144 0 0.577859C0 0.924575 0.231144 1.15572 0.57786 1.15572H1.61801ZM15.5444 3.46716C15.7178 3.46716 15.8334 3.58273 15.8911 3.64051C15.8911 3.6983 16.0067 3.87166 15.8911 4.04501L13.1752 9.99697H6.9921L4.10281 3.46716H15.5444Z" fill="black"/>
<path d="M7.80098 16.7578C8.43927 16.7578 8.9567 16.2404 8.9567 15.6021C8.9567 14.9638 8.43927 14.4464 7.80098 14.4464C7.1627 14.4464 6.64526 14.9638 6.64526 15.6021C6.64526 16.2404 7.1627 16.7578 7.80098 16.7578Z" fill="black"/>
<path d="M12.8862 16.7578C13.5245 16.7578 14.0419 16.2404 14.0419 15.6021C14.0419 14.9638 13.5245 14.4464 12.8862 14.4464C12.2479 14.4464 11.7305 14.9638 11.7305 15.6021C11.7305 16.2404 12.2479 16.7578 12.8862 16.7578Z" fill="black"/>
</svg>
