<svg width="18" height="17" viewBox="0 0 18 17" fill="none" xmlns="http://www.w3.org/2000/svg">
<path d="M11.7451 10.0064C11.7451 9.9661 11.7612 9.92742 11.7898 9.8989C11.8184 9.87038 11.8572 9.85436 11.8977 9.85436C11.9381 9.85436 11.9769 9.87038 12.0056 9.8989C12.0342 9.92742 12.0502 9.9661 12.0502 10.0064C12.0506 10.6656 11.9207 11.3183 11.6678 11.9274C11.415 12.5364 11.0442 13.0898 10.5766 13.5559C10.109 14.022 9.55387 14.3916 8.94288 14.6437C8.3319 14.8957 7.67706 15.0253 7.01582 15.0249C6.97536 15.0249 6.93656 15.0088 6.90795 14.9803C6.87934 14.9518 6.86326 14.9131 6.86326 14.8728C6.86326 14.8325 6.87934 14.7938 6.90795 14.7653C6.93656 14.7367 6.97536 14.7207 7.01582 14.7207C7.637 14.7211 8.25216 14.5994 8.82612 14.3627C9.40009 14.1259 9.9216 13.7787 10.3608 13.3408C10.8001 12.903 11.1484 12.3831 11.3859 11.811C11.6235 11.2388 11.7455 10.6256 11.7451 10.0064V10.0064ZM5.18513 9.70229C5.06443 9.70229 4.94645 9.73796 4.8461 9.8048C4.74575 9.87164 4.66753 9.96665 4.62135 10.0778C4.57516 10.1889 4.56307 10.3113 4.58662 10.4293C4.61017 10.5473 4.66828 10.6556 4.75363 10.7407C4.83897 10.8258 4.9477 10.8837 5.06608 10.9072C5.18445 10.9307 5.30715 10.9186 5.41865 10.8726C5.53016 10.8265 5.62546 10.7486 5.69252 10.6485C5.75957 10.5485 5.79536 10.4309 5.79536 10.3106C5.79536 10.1493 5.73107 9.99453 5.61663 9.88045C5.50218 9.76637 5.34697 9.70229 5.18513 9.70229ZM7.62605 10.3106C7.62605 10.1903 7.59027 10.0727 7.52321 9.97263C7.45616 9.8726 7.36085 9.79463 7.24935 9.74859C7.13784 9.70255 7.01515 9.6905 6.89677 9.71397C6.7784 9.73744 6.66967 9.79538 6.58432 9.88045C6.49898 9.96552 6.44086 10.0739 6.41732 10.1919C6.39377 10.3099 6.40585 10.4322 6.45204 10.5434C6.49823 10.6545 6.57644 10.7495 6.6768 10.8164C6.77715 10.8832 6.89513 10.9189 7.01582 10.9189C7.17767 10.9189 7.33288 10.8548 7.44732 10.7407C7.56176 10.6266 7.62605 10.4719 7.62605 10.3106ZM8.84652 10.9189C8.96721 10.9189 9.08519 10.8832 9.18555 10.8164C9.2859 10.7495 9.36411 10.6545 9.4103 10.5434C9.45649 10.4322 9.46857 10.3099 9.44503 10.1919C9.42148 10.0739 9.36336 9.96552 9.27802 9.88045C9.19268 9.79538 9.08394 9.73744 8.96557 9.71397C8.8472 9.6905 8.7245 9.70255 8.61299 9.74859C8.50149 9.79463 8.40618 9.8726 8.33913 9.97263C8.27208 10.0727 8.23629 10.1903 8.23629 10.3106C8.23629 10.4719 8.30058 10.6266 8.41502 10.7407C8.52946 10.8548 8.68468 10.9189 8.84652 10.9189ZM18 0.273732V9.39814C18 9.4788 17.9679 9.55616 17.9106 9.6132C17.8534 9.67024 17.7758 9.70229 17.6949 9.70229H13.1029C13.1029 9.80265 13.1181 9.90302 13.1181 10.0064C13.1175 11.079 12.8324 12.1323 12.2918 13.0597C11.7511 13.987 10.9741 14.7553 10.0394 15.2867C9.10483 15.8182 8.04587 16.0938 6.96992 16.0858C5.89396 16.0777 4.83928 15.7862 3.91279 15.2408L0.440572 16.9684C0.38336 16.9966 0.318698 17.0063 0.255693 16.996C0.192688 16.9856 0.134514 16.9559 0.0893668 16.9109C0.0442191 16.8659 0.0143721 16.8079 0.00402979 16.7451C-0.00631255 16.6823 0.00337087 16.6178 0.0317162 16.5608L1.76478 13.0996C1.29734 12.311 1.0146 11.4274 0.937646 10.5146C0.860692 9.60191 0.991514 8.68363 1.32035 7.82833C1.64918 6.97304 2.16754 6.20281 2.83674 5.57512C3.50594 4.94744 4.3087 4.4785 5.18513 4.20331V0.273732C5.18447 0.26259 5.18447 0.251419 5.18513 0.240276C5.18816 0.198047 5.2018 0.157257 5.22479 0.121659C5.22425 0.111528 5.22425 0.101375 5.22479 0.0912441V0.0912441C5.2395 0.0753617 5.25587 0.0610876 5.27361 0.0486636L5.31938 0.0182488L5.3743 0H5.43227H17.7162H17.7773L17.8291 0.0182488L17.8749 0.0486636C17.8926 0.0610876 17.909 0.0753617 17.9237 0.0912441H17.939C17.9395 0.101375 17.9395 0.111528 17.939 0.121659C17.962 0.157257 17.9756 0.198047 17.9786 0.240276C17.9865 0.250916 17.9937 0.262096 18 0.273732V0.273732ZM6.40559 0.577879L11.5926 4.45575L16.7795 0.577879H6.40559ZM12.5079 10.0064C12.5081 9.15773 12.3103 8.32059 11.9303 7.56115C11.5502 6.80171 10.9981 6.14076 10.3178 5.6305C9.63745 5.12024 8.84741 4.77464 8.01007 4.62099C7.17272 4.46735 6.31101 4.50987 5.49298 4.7452C4.67496 4.98053 3.92302 5.40222 3.29655 5.97697C2.67009 6.55172 2.18626 7.26378 1.88327 8.05693C1.58028 8.85008 1.46643 9.70258 1.55071 10.5471C1.63499 11.3917 1.9151 12.2051 2.36891 12.9232C2.36957 12.9343 2.36957 12.9455 2.36891 12.9567C2.37797 12.9752 2.38512 12.9945 2.39026 13.0144C2.39647 13.0527 2.39647 13.0917 2.39026 13.13C2.38729 13.1508 2.38218 13.1712 2.37501 13.1909C2.37568 13.202 2.37568 13.2132 2.37501 13.2243L0.983678 16.0194L3.78769 14.6234H3.82126L3.88228 14.6082H3.9372H3.99822L4.05315 14.6295H4.08671C4.91698 15.1513 5.87237 15.4418 6.85346 15.4707C7.83455 15.4996 8.80549 15.2659 9.66525 14.7939C10.525 14.322 11.2422 13.6289 11.7421 12.7869C12.242 11.945 12.5065 10.9848 12.5079 10.0064V10.0064ZM17.3898 9.09399V0.882026L11.7756 5.07925C11.7228 5.11874 11.6586 5.14008 11.5926 5.14008C11.5265 5.14008 11.4623 5.11874 11.4095 5.07925L5.79536 0.882026V4.04515C6.60567 3.88129 7.44094 3.88328 8.25045 4.051C9.05997 4.21873 9.82684 4.54869 10.5045 5.02085C11.1822 5.49302 11.7566 6.09754 12.1928 6.79772C12.6289 7.4979 12.9178 8.27913 13.0419 9.09399H17.3898Z" fill="black"/>
</svg>
