<svg width="86" height="96" viewBox="0 0 86 96" fill="none" xmlns="http://www.w3.org/2000/svg">
<path d="M32.0994 65.5C32.3994 65.8 32.7994 66 33.2994 66C33.6994 66 34.0994 65.8 34.4994 65.5L43.0994 56.9L51.6994 65.5C51.9994 65.8 52.3994 66 52.8994 66C53.2994 66 53.6994 65.8 54.0994 65.5C54.6994 64.9 54.6994 63.8 54.0994 63.2L45.4994 54.6L54.0994 46C54.6994 45.4 54.6994 44.3 54.0994 43.7C53.4994 43.1 52.3994 43.1 51.7994 43.7L42.9994 52.3L34.3994 43.7C33.7994 43.1 32.6994 43.1 32.0994 43.7C31.4994 44.3 31.4994 45.4 32.0994 46L40.6994 54.6L32.0994 63.2C31.4994 63.8 31.4994 64.9 32.0994 65.5Z" fill="black"/>
<path d="M83.5998 13.8H59.7998L55.3998 4.9C54.0998 2.2 51.3998 0.5 48.2998 0.5H37.6998C34.6998 0.5 31.9998 2.2 30.5998 4.9L26.1998 13.8H2.3998C1.4998 13.8 0.799805 14.5 0.799805 15.4C0.799805 16.3 1.4998 17 2.3998 17H8.7998L17.3998 85.4C18.0998 91.1 22.9998 95.4 28.7998 95.4H57.2998C63.0998 95.4 67.8998 91.1 68.6998 85.4L77.0998 17H83.4998C84.3998 17 85.0998 16.3 85.0998 15.4C85.0998 14.5 84.4998 13.8 83.5998 13.8ZM33.5998 6.3C34.3998 4.7 35.9998 3.7 37.6998 3.7H48.2998C49.9998 3.7 51.6998 4.7 52.3998 6.3L56.0998 13.7H29.8998L33.5998 6.3ZM65.2998 85.1C64.7998 89.2 61.2998 92.3 57.1998 92.3H28.7998C24.6998 92.3 21.1998 89.2 20.6998 85.1L12.1998 17.1H73.8998L65.2998 85.1Z" fill="black"/>
</svg>
