<svg width="97" height="38" viewBox="0 0 97 38" fill="none" xmlns="http://www.w3.org/2000/svg">
<path d="M95.3421 8.496C94.5061 7.9 78.9181 5.099 72.2521 3.922C61.5161 2.025 49.2801 0 47.1411 0C44.6341 0 38.7851 3.231 31.9621 7.135C29.4621 8.567 26.6261 10.189 26.0661 10.296C26.0281 10.301 25.9471 10.31 25.8001 10.314C24.7351 4.989 18.8931 2.983 15.3071 2.983C15.1151 2.983 14.9291 2.988 14.7471 2.999C14.1541 3.032 13.5541 3.053 12.9731 3.074C10.0031 3.177 7.20107 3.275 4.84807 4.97C3.03207 6.279 0.17507 13.017 0.00507009 20.192C-0.14693 26.657 3.15207 35.686 5.41907 36.698L5.54207 36.741C8.30907 37.483 10.8961 37.86 13.2341 37.86C21.6411 37.86 24.7801 33.141 25.6161 31.506L25.9931 31.538C26.4881 31.737 28.4211 32.481 31.6801 33.335C32.2231 33.476 32.8351 33.544 33.5521 33.544C35.4131 33.544 37.5551 33.067 39.2761 32.681C40.2301 32.469 41.0551 32.285 41.5471 32.245C42.0651 32.206 42.9831 32.185 44.2761 32.185C44.9651 32.185 45.6881 32.192 46.3581 32.2C47.1571 33.825 48.6631 35.403 50.0161 35.403C50.0751 35.403 50.1301 35.399 50.1861 35.393C51.0681 35.304 52.1901 34.661 53.3711 33.914C53.4181 34.018 53.4691 34.128 53.5271 34.24C54.1361 35.406 55.3391 36.766 56.7231 36.766C57.1731 36.766 57.5931 36.62 57.9681 36.341L58.1441 36.209C58.9271 35.624 61.2781 33.864 64.0091 31.687C73.0691 31.062 73.7571 30.185 74.1071 29.742C74.7611 28.908 74.9331 27.886 74.6031 26.781C74.2911 25.738 73.5541 24.756 72.7781 24.084C76.0111 20.871 77.0491 18.942 76.2361 17.705C75.6701 16.841 74.6141 15.835 73.0911 14.699C81.8171 15.091 87.6391 15.291 90.4111 15.291C94.6631 15.291 96.0551 13.741 96.4721 12.441C96.9771 10.858 96.1551 9.074 95.3421 8.496ZM4.47507 32.672C4.01207 31.678 3.52807 30.445 3.09307 29.07L8.68607 35.74C7.97307 35.609 7.24407 35.447 6.50107 35.26L4.47507 32.672ZM2.39007 26.503C2.12807 25.369 1.92107 24.191 1.79807 23.007L12.1111 36.156C11.5401 36.123 10.9521 36.072 10.3511 35.996L2.39007 26.503ZM22.3371 32.885L22.4251 32.972C22.2901 33.103 22.1461 33.233 21.9951 33.364L21.8781 33.247C22.0441 33.132 22.1951 33.01 22.3371 32.885ZM20.8551 33.796L21.1031 34.046C20.8741 34.199 20.6281 34.355 20.3691 34.502L19.9351 34.068C20.2651 33.998 20.5721 33.908 20.8551 33.796ZM18.2761 34.19C18.3481 34.194 18.4201 34.196 18.4911 34.196L19.3211 35.028C18.9981 35.17 18.6561 35.302 18.2951 35.425L17.2191 34.067C17.5601 34.131 17.9141 34.171 18.2761 34.19ZM23.1841 32.158L23.0891 32.064C23.2641 31.828 23.4061 31.592 23.5191 31.367L23.7511 31.388C23.5991 31.619 23.4121 31.882 23.1841 32.158ZM15.2461 33.366L17.1371 35.759C16.8111 35.836 16.4731 35.904 16.1191 35.963L8.00907 25.42L7.12607 26.099L14.8371 36.121C14.4231 36.156 13.9931 36.176 13.5481 36.184L1.67107 21.048C1.66707 20.774 1.66507 20.498 1.67107 20.227C1.84307 12.942 4.82207 7.041 5.82107 6.321C7.76107 4.923 10.3201 4.834 13.0281 4.74C13.6201 4.719 14.2291 4.698 14.8401 4.663C14.9901 4.654 15.1471 4.65 15.3051 4.65C17.9471 4.65 22.0341 5.89 23.6311 9.079C22.5881 8.038 20.9981 7.082 19.1721 7.082C17.5631 7.082 16.0371 7.791 14.6291 9.186L14.6211 9.183L14.4691 9.347C14.2351 9.591 14.0041 9.85 13.7761 10.13C13.6761 10.252 13.5811 10.379 13.4861 10.511C13.4071 10.621 13.3311 10.735 13.2551 10.851C13.2411 10.871 13.2271 10.891 13.2121 10.913C12.0241 12.751 11.1391 15.401 10.7121 18.265C10.7101 18.268 10.7101 18.27 10.7101 18.273C10.6801 18.476 10.6511 18.677 10.6261 18.882C10.6201 18.931 10.6141 18.979 10.6081 19.028C10.5881 19.188 10.5711 19.348 10.5551 19.509C10.5451 19.608 10.5351 19.703 10.5271 19.802C10.5181 19.918 10.5061 20.033 10.4991 20.151C10.4881 20.296 10.4781 20.44 10.4701 20.586C10.4661 20.659 10.4601 20.73 10.4561 20.803C10.4481 20.991 10.4411 21.184 10.4351 21.374C10.4341 21.403 10.4331 21.435 10.4321 21.464C10.3731 23.775 10.6381 26.092 11.3081 28.126C11.3121 28.137 11.3161 28.149 11.3201 28.161C11.3831 28.351 11.4521 28.54 11.5231 28.726C11.5271 28.737 11.5311 28.748 11.5361 28.758C11.6181 28.971 11.7021 29.18 11.7941 29.385C11.8881 29.591 11.9841 29.792 12.0871 29.987L12.2491 30.305L12.2631 30.307C13.0421 31.684 14.0461 32.711 15.2461 33.366ZM50.0161 33.733C49.7261 33.733 48.9461 33.183 48.2941 32.229C48.7861 32.239 49.1011 32.245 49.1101 32.245L49.1381 32.247C49.1461 32.247 49.2371 32.245 49.3931 32.243C49.4011 32.243 49.4081 32.243 49.4181 32.243C49.4361 32.243 49.4571 32.243 49.4751 32.243C50.0511 32.235 51.3241 32.215 53.0021 32.172C52.9241 32.22 52.8421 32.272 52.7501 32.331C52.0711 32.765 50.6531 33.669 50.0161 33.733ZM57.1461 34.873L56.9691 35.007C56.8601 35.087 56.7811 35.098 56.7231 35.098C55.9651 35.098 54.9071 33.53 54.7871 32.948C54.9381 32.61 54.8481 32.333 54.7691 32.186L54.7351 32.124C56.5531 32.071 58.6471 31.993 60.7571 31.884C60.8701 31.879 60.9811 31.872 61.0911 31.864C59.2231 33.323 57.7361 34.432 57.1461 34.873ZM74.8311 18.603C74.8461 18.716 74.8521 19.731 71.2691 23.23C71.2681 23.229 71.2651 23.228 71.2641 23.228C71.2411 23.221 71.2131 23.215 71.1911 23.207C71.1691 23.201 71.1471 23.195 71.1241 23.187C71.0961 23.181 71.0641 23.172 71.0331 23.166C71.0111 23.158 70.9881 23.152 70.9641 23.146C70.9331 23.138 70.8981 23.129 70.8621 23.121C70.8371 23.113 70.8101 23.109 70.7861 23.1C70.7471 23.092 70.7101 23.082 70.6711 23.073C70.6461 23.067 70.6181 23.059 70.5931 23.053C70.5481 23.041 70.5051 23.032 70.4581 23.02C70.4351 23.015 70.4071 23.008 70.3821 23.001C70.3311 22.99 70.2821 22.978 70.2301 22.966C70.2141 22.961 70.2011 22.957 70.1861 22.953C69.8991 22.886 69.5701 22.809 69.2051 22.724C69.1951 22.722 69.1841 22.721 69.1761 22.719C69.0901 22.698 69.0061 22.681 68.9181 22.659C68.8971 22.655 68.8751 22.649 68.8541 22.644C68.7731 22.624 68.6881 22.608 68.6031 22.587C68.5681 22.578 68.5351 22.572 68.5001 22.565C68.4241 22.546 68.3491 22.53 68.2711 22.513C68.2101 22.498 68.1481 22.485 68.0851 22.471C68.0331 22.459 67.9841 22.45 67.9331 22.437C67.6751 22.378 67.4051 22.317 67.1211 22.255C66.3381 22.078 65.4331 21.878 64.5371 21.673L67.8851 18.323L67.0981 17.538L63.2601 21.376C62.5581 21.21 61.9021 21.052 61.3641 20.912L65.5371 16.74L64.7521 15.954L60.1491 20.554C60.1191 20.542 60.0891 20.53 60.0671 20.519C59.7961 20.384 59.2811 20.088 58.6381 19.707L64.0741 14.273C65.8631 14.36 67.8621 14.455 69.9431 14.553C72.4281 16.158 74.1581 17.591 74.8311 18.603ZM55.3201 14.019L53.3981 15.941C53.6681 15.252 54.2221 14.354 55.3201 14.019ZM56.9931 13.918C57.3701 13.939 57.9971 13.97 58.8291 14.014L55.2211 17.621C54.7981 17.359 54.3951 17.107 54.0331 16.878L56.9931 13.918ZM60.3271 14.09C61.0071 14.123 61.7611 14.161 62.5731 14.201L57.6541 19.119C57.1841 18.834 56.6861 18.529 56.1911 18.224L60.3271 14.09ZM94.8791 11.941C94.5241 13.024 92.9371 13.621 90.4101 13.621C90.0151 13.621 89.5491 13.616 89.0201 13.608V12.392H87.9001V13.585C87.3881 13.573 86.8321 13.559 86.2321 13.541V11.766H85.1191V13.507C84.5941 13.491 84.0351 13.472 83.4531 13.451V11.765H82.3401V13.411C81.8071 13.392 81.2501 13.37 80.6721 13.349V11.905H79.5611V13.305C79.0211 13.283 78.4671 13.261 77.8931 13.237V12.045H76.7811V13.191C76.2391 13.169 75.6821 13.143 75.1141 13.12V11.073H74.0031V13.07C73.4561 13.046 72.9011 13.021 72.3351 12.995V11.073H71.2231V12.944C71.0981 12.938 70.9721 12.932 70.8451 12.927C70.7161 12.921 70.5871 12.914 70.4601 12.909L70.2351 12.898C70.0061 12.888 69.7801 12.878 69.5511 12.867V10.378H68.4421V12.815C67.8761 12.788 67.3211 12.761 66.7731 12.736V9.544H65.6631V12.683C65.4741 12.675 65.2861 12.666 65.1011 12.656C65.0951 12.656 65.0911 12.656 65.0831 12.655C64.9291 12.649 64.7731 12.641 64.6221 12.633C64.5381 12.628 64.4541 12.626 64.3701 12.62C64.2801 12.616 64.1911 12.612 64.1021 12.607C64.0661 12.605 64.0301 12.604 63.9951 12.602V8.71H62.8831V12.547C62.8261 12.544 62.7711 12.542 62.7151 12.539C62.6011 12.533 62.4861 12.527 62.3751 12.522C62.2851 12.518 62.1981 12.512 62.1121 12.508C62.0471 12.504 61.9851 12.501 61.9241 12.499C61.8101 12.493 61.6951 12.486 61.5861 12.481C61.5181 12.478 61.4471 12.474 61.3811 12.47C61.3241 12.467 61.2711 12.464 61.2151 12.462V8.429H60.1041V12.407C59.4711 12.375 58.9111 12.345 58.4351 12.322V8.988H57.3241V12.265C56.9231 12.245 56.7011 12.233 56.6931 12.233C56.5381 12.221 56.3881 12.215 56.2411 12.215C56.0381 12.215 55.8431 12.227 55.6551 12.249V10.098H54.5431V12.518C53.8571 12.78 53.3091 13.193 52.8751 13.667V11.209H51.7651V15.515C51.5711 16.039 51.4871 16.498 51.4871 16.77V17.215L51.8581 17.465C53.0531 18.261 58.1221 21.414 59.3141 22.01C60.0201 22.364 62.7171 22.98 66.7521 23.883C68.6781 24.313 70.4961 24.72 70.9571 24.875C70.9801 24.882 71.0061 24.894 71.0311 24.904C71.0511 24.912 71.0691 24.919 71.0921 24.931C71.6551 25.211 72.6741 26.174 73.0001 27.257C73.1681 27.827 73.1051 28.297 72.8031 28.693C72.7091 28.771 72.5471 28.847 72.3361 28.922V28.325H71.2241V29.21C70.7521 29.304 70.1961 29.396 69.5551 29.481V27.977H68.4451V29.62C67.9231 29.679 67.3671 29.735 66.7761 29.792V28.536H65.6651V29.89C65.2981 29.92 64.9231 29.951 64.5341 29.978L63.9991 30.015V28.119H62.8861V30.089C62.3331 30.123 61.7771 30.156 61.2181 30.188V28.54H60.1081V30.245C59.5461 30.27 58.9891 30.299 58.4391 30.321V27.843H57.3281V30.364C56.7581 30.387 56.1981 30.407 55.6591 30.425V27.566H54.5491V30.462C53.9571 30.478 53.4011 30.493 52.8811 30.506V27.428H51.7701V30.532C51.1001 30.547 50.5361 30.557 50.1021 30.565V26.872H48.9891V30.575C48.8681 30.573 48.6761 30.569 48.4331 30.564C48.4261 30.564 48.4191 30.564 48.4131 30.562C48.3771 30.562 48.3411 30.562 48.3021 30.561C48.0241 30.555 47.6911 30.549 47.3221 30.544V26.314H46.2091V30.528L45.6661 30.519L45.6681 30.524C45.2951 30.521 44.9161 30.518 44.5411 30.517V25.758H43.4301V30.521C42.7371 30.526 42.1801 30.54 41.7621 30.56V24.924H40.6511V30.687C40.1671 30.774 39.6011 30.899 38.9831 31.038V24.926H37.8721V31.28C37.3311 31.397 36.7681 31.511 36.2031 31.608V23.663H35.0911V31.769C34.5631 31.832 34.0421 31.873 33.5561 31.873C33.4781 31.873 33.4061 31.871 33.3311 31.867V22.121H32.2181V31.74C32.1831 31.734 32.1431 31.725 32.1071 31.717C31.5461 31.571 31.0311 31.428 30.5501 31.291V21.16H29.4401V30.959C28.7721 30.754 28.2141 30.566 27.7721 30.412V19.921H26.6611V30.003C26.5731 29.969 26.5221 29.949 26.5201 29.947L26.4011 29.896L24.9921 29.769V19.918H23.8811V29.669L22.2131 29.521V20.879H21.1021V29.42L19.4341 29.273V22.66H18.3221V29.174L16.6551 29.024V24.069H15.5441V28.924L13.8741 28.776V25.48H12.7631V27.13C11.2791 21.887 12.5581 14.287 15.0791 11.18C15.1411 11.103 15.2051 11.026 15.2721 10.948C17.8191 11.278 21.0921 11.677 23.4481 11.869L23.4731 11.941L24.2001 11.925C25.2591 11.997 25.9321 12.004 26.3251 11.942C27.1081 11.822 28.9791 10.767 32.7981 8.58C37.6111 5.828 44.8821 1.667 47.1491 1.667C51.4821 1.667 92.1451 9.12 94.4241 9.889C94.6701 10.142 95.1571 11.096 94.8791 11.941Z" fill="black"/>
</svg>
